<svg id="visual" viewBox="0 0 1200 700" width="1200" height="700" xmlns="http://www.w3.org/2000/svg" xmlns:xlink="http://www.w3.org/1999/xlink" version="1.1"><rect width="1200" height="700" fill="#931F1F"></rect><g><g transform="translate(864 470)"><path d="M113.6 -37.1C127.3 5.5 105 59.6 62.6 91.7C20.3 123.7 -42.1 133.7 -82.3 106.2C-122.5 78.6 -140.6 13.5 -123.2 -34.1C-105.8 -81.7 -52.9 -111.9 -1.5 -111.4C49.9 -110.9 99.8 -79.8 113.6 -37.1Z" stroke="#F7760E" fill="none" stroke-width="20"></path></g><g transform="translate(224 404)"><path d="M79.9 -26C90.1 5.4 75.6 44.8 47.1 65.8C18.6 86.7 -24 89.2 -48.1 70.7C-72.1 52.2 -77.6 12.6 -66.5 -20.1C-55.3 -52.7 -27.7 -78.5 3.6 -79.7C34.8 -80.9 69.7 -57.4 79.9 -26Z" stroke="#F7760E" fill="none" stroke-width="20"></path></g><g transform="translate(325 37)"><path d="M61.5 -23C69 3.1 57.1 32.6 33.9 50.3C10.8 68 -23.6 73.9 -46.5 58.5C-69.5 43.1 -81 6.5 -71.3 -22.5C-61.7 -51.6 -30.8 -73.1 -1.9 -72.5C27 -71.8 54 -49.1 61.5 -23Z" stroke="#F7760E" fill="none" stroke-width="20"></path></g></g></svg>