<svg id="visual" viewBox="0 0 1200 700" width="1200" height="700" xmlns="http://www.w3.org/2000/svg" xmlns:xlink="http://www.w3.org/1999/xlink" version="1.1"><rect x="0" y="0" width="1200" height="700" fill="#002233"></rect><path d="M0 499L28.5 490.7C57 482.3 114 465.7 171.2 480.2C228.3 494.7 285.7 540.3 342.8 558.3C400 576.3 457 566.7 514.2 543.5C571.3 520.3 628.7 483.7 685.8 487.8C743 492 800 537 857.2 536.3C914.3 535.7 971.7 489.3 1028.8 466.7C1086 444 1143 445 1171.5 445.5L1200 446L1200 701L1171.5 701C1143 701 1086 701 1028.8 701C971.7 701 914.3 701 857.2 701C800 701 743 701 685.8 701C628.7 701 571.3 701 514.2 701C457 701 400 701 342.8 701C285.7 701 228.3 701 171.2 701C114 701 57 701 28.5 701L0 701Z" fill="#F7770F" stroke-linecap="round" stroke-linejoin="miter"></path></svg>